<svg width="27" height="28" viewBox="0 0 27 28" fill="none" xmlns="http://www.w3.org/2000/svg">
<path fill-rule="evenodd" clip-rule="evenodd" d="M1.8541 25.0163H6.6102V10.0684H1.8541V25.0163ZM1.31055 5.58399C1.31055 7.07887 2.39767 8.16594 4.16425 8.16594C5.93082 8.16594 7.0179 6.94303 7.0179 5.58399C7.0179 4.0892 5.93082 3.00208 4.16425 3.00208C2.39767 3.00208 1.31055 4.0892 1.31055 5.58399ZM20.1993 25.0163H25.499V16.727C25.499 12.1067 22.9172 9.93257 19.5198 9.93257C16.8021 9.93257 15.0355 11.2915 14.7636 12.3786V10.0684H9.4639V25.0163H14.7636V16.8629C14.7636 16.4552 14.7636 15.9117 14.8996 15.64C15.3073 14.8246 16.1225 13.8733 17.4815 13.8733C19.3839 13.8733 20.1993 15.2323 20.1993 17.2706V25.0163Z" fill="#101010"/>
</svg>
